<?xml version="1.0" standalone="no"?>
<!DOCTYPE svg PUBLIC "-//W3C//DTD SVG 20010904//EN"
 "http://www.w3.org/TR/2001/REC-SVG-20010904/DTD/svg10.dtd">
<svg version="1.0" xmlns="http://www.w3.org/2000/svg"
 width="1920.000000pt" height="1183.000000pt" viewBox="0 0 1920.000000 1183.000000"
 preserveAspectRatio="xMidYMid meet">
<metadata>
Created by potrace 1.16, written by Peter Selinger 2001-2019
</metadata>
<g transform="translate(0.000000,1183.000000) scale(0.100000,-0.100000)"
fill="#000000" stroke="none">
<path d="M0 5915 l0 -5915 2487 0 c1367 0 2484 2 2482 4 -2 2 -80 55 -174 117
-93 62 -172 115 -175 119 -11 12 -284 196 -480 322 -66 43 -296 154 -365 177
-117 38 -209 51 -364 51 -680 0 -1226 131 -1596 384 -149 101 -324 287 -412
436 -53 89 -123 238 -123 261 0 4 42 32 92 61 140 81 252 145 310 177 86 46
132 73 143 81 6 4 46 28 90 52 44 25 125 71 180 103 150 87 261 151 276 159 8
4 23 12 34 19 11 7 59 34 105 61 47 27 153 89 237 138 l152 89 100 -61 c55
-33 103 -60 105 -60 3 0 34 -17 68 -38 35 -21 117 -69 183 -107 66 -38 135
-80 153 -93 l33 -25 22 20 c12 11 36 27 52 35 32 16 97 51 158 87 l39 22 36
-23 c21 -12 39 -25 42 -28 3 -3 16 -11 30 -18 64 -32 113 -62 90 -56 -36 9
-91 35 -123 57 -21 14 -31 17 -40 8 -8 -8 -7 -11 4 -11 19 0 55 -37 46 -46 -4
-4 -18 1 -32 10 -14 9 -25 12 -25 7 0 -5 9 -12 19 -16 11 -3 20 -14 20 -23 1
-38 5 -52 13 -52 5 0 6 -5 3 -10 -3 -6 1 -10 9 -10 27 0 18 -28 -14 -42 -17
-7 -30 -16 -30 -19 0 -3 39 -9 88 -12 122 -9 317 -26 380 -33 43 -4 58 -1 82
16 l30 21 0 -235 c0 -214 6 -267 25 -236 3 6 25 20 48 31 23 12 44 24 47 28 3
3 30 19 60 35 30 16 62 35 71 42 8 8 19 14 22 14 4 0 7 -61 7 -135 0 -74 3
-135 6 -135 4 0 21 9 39 20 l32 19 17 -55 c15 -47 21 -56 47 -61 25 -5 29 -10
29 -38 0 -26 7 -37 38 -57 20 -13 44 -27 52 -31 8 -4 29 -16 45 -26 17 -10 91
-53 165 -96 74 -43 146 -86 160 -95 14 -10 57 -34 95 -55 85 -45 147 -86 141
-93 -8 -7 -65 22 -60 30 3 4 -3 8 -13 8 -10 0 -27 7 -37 15 -22 16 -36 19 -36
8 0 -5 19 -16 41 -25 29 -12 40 -22 37 -35 -2 -10 -8 -18 -13 -18 -6 0 -22 -9
-37 -19 l-28 -18 0 -154 0 -153 38 -4 c20 -2 14 -3 -15 -1 -50 2 -51 2 -33
-16 18 -18 42 -23 197 -39 51 -6 107 -12 125 -16 31 -5 95 -11 548 -50 96 -9
187 -21 202 -27 50 -19 107 -12 160 21 27 17 52 31 55 31 4 0 14 6 22 14 9 7
36 25 61 38 25 14 86 49 135 78 50 29 125 72 168 97 43 24 96 55 117 68 22 14
44 25 50 25 5 0 10 4 10 8 0 8 43 32 55 32 14 0 -8 -161 -41 -310 -54 -239
-191 -511 -344 -682 l-52 -58 471 0 c259 0 471 3 470 8 0 4 -27 28 -59 55 -64
51 -150 150 -189 218 -61 104 -101 212 -121 325 -20 109 -8 306 24 428 32 119
47 147 95 172 20 10 128 73 241 138 113 66 221 128 240 139 19 10 71 40 115
66 44 26 129 76 188 111 l108 63 72 -8 c201 -19 398 -113 538 -256 65 -65 140
-175 160 -234 7 -22 17 -45 21 -51 10 -13 28 -129 35 -214 3 -41 -1 -85 -11
-120 -12 -46 -15 -50 -17 -25 -1 25 -3 22 -11 -17 -7 -32 -16 -49 -29 -53 -10
-4 -19 -10 -19 -15 0 -5 -3 -17 -7 -27 -6 -15 -4 -16 9 -5 14 11 14 8 4 -30
-10 -38 -11 -40 -14 -15 l-3 27 -30 -17 c-18 -11 -33 -29 -36 -46 -9 -45 -31
-41 -24 5 0 4 -6 5 -14 2 -9 -4 -15 -19 -15 -40 l0 -34 -65 0 -65 0 0 -40 0
-40 -40 0 -40 0 0 -40 0 -40 -40 0 -40 0 0 -40 0 -40 -42 -1 c-24 -1 -46 -1
-50 0 -5 0 -8 -6 -8 -15 0 -22 -28 -47 -45 -40 -12 4 -15 -5 -15 -44 0 -28 -4
-51 -10 -51 -5 -1 -19 -3 -30 -4 -11 -1 -42 -3 -70 -4 l-50 -1 0 -40 c0 -40 0
-40 -39 -40 -22 0 -41 5 -43 12 -3 9 -6 9 -12 0 -4 -7 -2 -12 3 -12 6 0 11
-16 11 -35 l0 -35 2609 0 2609 0 -5 133 c-7 151 6 280 43 432 33 139 110 338
161 415 13 19 23 38 23 43 0 11 130 200 172 251 113 136 230 251 343 337 92
70 162 119 170 119 3 0 11 5 18 11 43 38 269 151 407 202 303 114 561 160 890
160 178 0 436 -23 465 -41 5 -3 25 -7 44 -9 20 -2 68 -15 107 -29 39 -13 77
-24 85 -24 8 -1 32 -9 54 -20 22 -11 44 -19 48 -20 5 0 66 -29 137 -64 320
-159 539 -349 809 -701 4 -6 20 -33 36 -60 16 -28 39 -63 51 -80 19 -26 113
-214 157 -315 30 -68 96 -276 117 -370 12 -52 26 -108 31 -125 4 -16 13 -78
20 -137 l12 -108 593 0 594 0 0 5915 0 5915 -1320 0 -1320 0 0 -160 c0 -100
-4 -160 -10 -160 -5 0 -10 -18 -10 -40 0 -22 5 -40 10 -40 6 0 10 18 10 40 l0
40 40 0 40 0 0 -160 0 -160 40 0 40 0 0 -200 0 -200 40 0 40 0 0 -120 0 -120
40 0 40 0 0 -40 0 -40 -40 0 -40 0 0 -40 0 -40 40 0 40 0 0 -160 0 -160 40 0
40 0 0 -160 0 -160 40 0 40 0 0 -160 0 -160 40 0 40 0 0 -84 0 -83 28 5 c15 2
24 1 20 -3 -4 -4 -22 -9 -40 -10 -18 -2 -46 -4 -63 -5 -23 -2 -18 -4 20 -10
38 -5 62 -3 100 11 55 21 80 24 52 8 -28 -16 -159 -61 -184 -63 -11 0 -19 -4
-16 -8 2 -5 -11 -8 -29 -9 -18 0 -44 -3 -58 -5 -67 -13 -319 -12 -390 1 -218
42 -460 142 -660 276 -101 67 -284 202 -311 228 -9 9 -42 38 -75 66 -62 51
-454 441 -514 510 -218 250 -405 551 -507 815 -47 123 -51 135 -66 185 -47
156 -84 344 -93 481 l-7 94 -7163 0 -7164 0 0 -5915z m9612 5504 c192 -39 363
-133 505 -277 138 -141 249 -350 289 -547 21 -103 15 -267 -15 -385 -61 -240
-236 -468 -469 -613 -125 -77 -128 -79 -145 -109 -9 -16 -25 -28 -36 -28 -31
0 -34 -18 -4 -23 20 -3 16 -4 -14 -6 l-43 -1 0 -40 0 -40 -40 0 -40 0 0 -40 0
-40 -55 0 -55 0 0 -40 c0 -36 -2 -40 -25 -40 -22 0 -25 -4 -25 -40 l0 -40 -40
0 -40 0 0 -40 0 -40 -40 0 c-39 0 -40 -1 -40 -35 0 -19 -4 -36 -10 -36 -5 -1
-23 -3 -40 -4 -16 -1 -37 -3 -45 -4 -11 -1 -15 -13 -15 -41 0 -36 -2 -40 -25
-40 -22 0 -25 -4 -25 -35 0 -19 -4 -36 -10 -36 -24 -3 -73 -7 -110 -8 -40 -1
-40 -1 -40 -41 l0 -40 -40 0 -40 0 -1 -42 c-1 -24 0 -60 1 -80 2 -38 2 -38
-39 -38 l-41 0 0 -40 0 -40 -55 0 -55 0 0 -40 c0 -36 -2 -40 -25 -40 -22 0
-25 -4 -25 -40 l0 -40 -40 0 -40 0 0 -40 c0 -40 0 -40 -39 -40 -39 0 -40 -1
-43 -37 -3 -33 -7 -38 -37 -44 -18 -4 -36 -11 -40 -17 -3 -5 -23 -11 -43 -14
-32 -3 -38 -1 -38 14 0 12 -7 18 -22 18 -21 -1 -21 -2 -5 -11 23 -14 22 -29
-3 -29 -14 0 -20 -6 -18 -17 3 -20 6 -19 -117 -24 l-80 -3 110 -6 110 -6 -141
-2 c-142 -2 -301 12 -318 29 -6 5 -18 9 -27 9 -15 0 -17 27 -18 304 l-2 304
65 36 66 37 0 185 0 185 -57 -32 c-32 -18 -63 -36 -69 -40 -6 -5 -42 -26 -80
-47 -38 -21 -129 -73 -203 -116 -74 -43 -149 -86 -165 -96 -34 -19 -158 -91
-336 -195 -63 -37 -171 -99 -240 -138 -69 -39 -126 -75 -128 -79 -2 -4 -8 -8
-14 -8 -6 0 -47 -22 -92 -49 -45 -26 -108 -63 -141 -81 -33 -18 -77 -44 -97
-57 l-38 -23 0 -73 0 -74 -65 -38 -65 -38 0 -1172 c0 -644 3 -1174 6 -1178 3
-3 22 4 42 15 149 83 618 353 622 358 3 3 34 20 70 39 36 19 72 40 81 47 8 8
18 14 22 14 4 0 44 22 89 49 46 26 103 59 128 73 44 24 139 79 170 98 8 5 49
29 90 52 41 24 89 51 105 61 17 9 59 34 95 53 36 20 82 47 103 60 l37 24 0
366 0 366 42 -39 c96 -88 219 -218 270 -285 15 -20 34 -42 41 -50 7 -7 28 -35
47 -63 19 -27 38 -52 41 -55 10 -7 103 -158 127 -205 l20 -40 -182 -104 c-99
-58 -276 -160 -392 -228 -116 -68 -216 -123 -222 -123 -7 0 -12 -4 -12 -8 0
-5 -16 -16 -35 -25 l-35 -17 0 -84 0 -85 -71 -41 c-38 -23 -72 -47 -75 -53 -2
-7 -3 -375 -2 -819 l3 -807 150 86 c83 47 198 114 257 149 59 35 109 64 112
64 3 0 35 18 71 40 36 22 70 40 75 40 6 0 10 5 10 10 0 6 5 10 11 10 6 0 43
20 82 43 40 24 92 55 117 69 204 115 476 274 478 280 2 5 9 8 16 8 7 0 33 13
59 30 26 16 49 30 52 30 2 0 25 -35 50 -78 48 -78 189 -278 209 -297 6 -5 27
-30 46 -55 19 -25 39 -50 45 -56 5 -6 35 -39 65 -74 30 -35 60 -68 65 -74 6
-6 41 -47 79 -91 37 -44 80 -93 95 -110 35 -39 138 -178 175 -235 80 -122 148
-284 171 -402 29 -153 11 -407 -36 -513 -5 -11 -16 -42 -25 -70 -57 -177 -174
-375 -292 -498 -70 -74 -250 -207 -280 -207 -5 0 -12 -4 -14 -8 -4 -10 -163
-75 -255 -105 l-73 -23 -47 26 c-130 72 -149 84 -164 96 -8 8 -19 14 -22 14
-4 0 -36 18 -72 40 -36 22 -68 40 -70 40 -3 0 -23 11 -45 25 -22 14 -64 38
-92 54 -100 54 -443 254 -470 272 -14 11 -31 19 -36 19 -6 0 -17 6 -24 13 -7
6 -43 27 -78 46 -36 19 -100 56 -143 83 -43 26 -80 48 -82 48 -2 0 -54 29
-115 65 -61 36 -122 68 -135 71 -18 5 -26 15 -31 43 -4 20 -20 72 -36 115 -16
43 -27 80 -26 81 37 24 111 65 118 65 6 0 10 189 10 530 0 292 -2 530 -4 530
-7 0 -151 -81 -161 -91 -5 -5 -13 -9 -17 -9 -4 0 -8 97 -8 215 0 149 3 215 11
215 6 0 24 9 39 20 l29 21 -1 152 c0 84 -2 155 -4 159 -2 3 -95 -46 -207 -111
-111 -64 -227 -131 -258 -148 l-55 -31 -63 186 c-35 103 -68 193 -73 200 -20
24 -65 11 -173 -53 -60 -35 -115 -69 -122 -75 -7 -5 -15 -10 -18 -10 -3 0 -81
-44 -173 -98 -92 -54 -178 -104 -191 -111 l-23 -13 3 876 4 875 -290 166
c-160 92 -311 180 -338 196 -26 16 -52 29 -57 29 -6 0 -10 5 -10 10 0 6 -5 10
-11 10 -6 0 -36 15 -67 34 -32 18 -94 55 -139 81 -46 26 -83 49 -83 51 0 3 69
110 255 394 317 484 495 761 495 770 0 5 3 10 8 12 4 2 19 22 35 45 34 53 36
96 5 111 -70 34 -162 90 -166 100 -2 6 30 29 70 52 134 77 148 88 148 116 0
14 -24 69 -53 122 -29 53 -80 149 -112 212 -60 120 -118 230 -165 315 -15 28
-61 115 -103 195 -42 80 -96 183 -121 230 -26 47 -56 106 -67 133 -12 26 -25
47 -30 47 -5 0 -9 5 -9 12 0 10 -70 145 -241 465 -22 40 -39 77 -39 82 0 20
259 72 447 92 147 14 427 7 557 -15 255 -44 520 -145 706 -269 212 -141 417
-354 504 -524 9 -18 20 -33 25 -33 4 0 16 28 26 63 44 144 137 331 228 452 93
125 264 273 404 351 217 122 438 181 708 191 146 5 288 -6 307 -25 5 -5 0 -29
-13 -58 -110 -254 -123 -488 -42 -739 43 -131 86 -201 194 -316 25 -27 49 -49
53 -49 4 0 19 -11 34 -25 15 -14 33 -25 40 -25 7 0 15 -7 18 -15 4 -8 11 -15
16 -15 6 0 25 -7 44 -16 20 -10 41 -13 51 -9 16 7 15 9 -7 16 -20 6 -17 7 18
6 40 -1 59 -19 30 -30 -7 -2 -9 -8 -5 -13 12 -12 28 18 22 41 -2 11 -5 35 -5
53 0 31 -2 32 -40 32 l-40 0 0 40 c0 33 3 40 20 40 17 0 20 7 20 40 0 33 -3
40 -20 40 -17 0 -20 7 -20 40 0 33 3 40 20 40 17 0 20 7 20 40 0 33 -3 40 -20
40 -19 0 -20 7 -20 160 0 153 1 160 20 160 19 0 20 7 20 120 0 108 2 120 18
120 14 0 17 7 14 40 -3 26 -9 40 -18 40 -15 0 -20 65 -6 74 5 3 12 110 16 238
4 128 8 238 8 245 1 6 7 9 15 6 9 -4 13 6 13 36 0 23 5 41 11 41 7 0 10 17 7
45 l-3 45 53 20 c29 11 71 24 93 29 22 5 43 12 46 15 11 10 209 7 265 -5z
m-5222 -1865 c0 -1420 -1 -1536 -16 -1530 -17 7 -248 140 -479 276 -132 78
-260 153 -550 320 -88 51 -170 98 -183 106 l-22 15 56 107 c53 101 173 328
269 507 23 44 111 210 195 369 83 159 157 299 164 310 8 12 44 80 81 151 37
72 104 198 148 280 44 83 124 233 178 335 136 258 154 290 157 290 1 0 2 -691
2 -1536z m152 1271 c47 -88 108 -203 135 -255 28 -52 91 -171 140 -265 50 -93
121 -228 158 -300 37 -71 78 -148 90 -171 12 -22 62 -116 110 -210 49 -93 91
-173 95 -179 4 -5 38 -68 75 -140 147 -282 190 -364 242 -463 49 -92 53 -103
36 -109 -10 -4 -20 -9 -23 -13 -6 -7 -196 -118 -280 -163 -30 -16 -62 -35 -70
-42 -8 -7 -35 -24 -60 -37 -92 -51 -366 -211 -392 -229 -15 -11 -29 -19 -31
-19 -2 0 -73 -40 -157 -89 -85 -50 -157 -88 -160 -86 -4 2 -8 667 -9 1477 -1
926 1 1469 7 1463 5 -5 48 -82 94 -170z m-848 -912 c-20 -37 -57 -106 -82
-153 -24 -47 -65 -123 -90 -170 -25 -47 -63 -119 -83 -160 -21 -41 -38 -70
-38 -65 0 6 12 51 28 100 30 94 96 235 150 320 41 65 145 204 149 200 2 -2
-13 -34 -34 -72z m-1603 -367 c261 -59 469 -204 579 -403 l24 -43 86 0 c101 0
238 -19 362 -50 l87 -22 -48 -92 c-126 -235 -128 -211 30 -302 55 -31 99 -60
97 -65 -2 -5 -46 -33 -98 -63 -52 -30 -97 -62 -98 -71 -4 -19 24 -66 183 -310
106 -162 148 -226 280 -430 32 -49 101 -155 153 -234 51 -79 129 -199 172
-267 l79 -124 -37 -24 c-20 -13 -82 -49 -137 -81 -55 -32 -129 -75 -165 -96
-36 -21 -77 -43 -92 -50 -16 -7 -28 -16 -28 -21 0 -4 -5 -8 -10 -8 -6 0 -43
-19 -83 -43 -128 -77 -351 -205 -389 -224 l-38 -18 0 -680 0 -680 -123 -69
c-67 -38 -153 -88 -192 -111 -38 -23 -115 -67 -170 -99 -55 -31 -107 -61 -115
-66 -71 -43 -170 -100 -173 -100 -3 0 -49 -26 -104 -58 -54 -32 -118 -70 -143
-84 -25 -14 -121 -69 -215 -123 -93 -54 -203 -118 -244 -142 -41 -23 -77 -41
-79 -39 -2 3 1 19 7 38 34 105 94 408 122 618 19 137 16 452 -5 570 -34 192
-105 378 -220 580 -128 224 -207 473 -247 774 -18 137 -7 492 20 641 22 122
57 263 92 367 l19 57 -53 78 c-29 43 -65 103 -79 133 -23 48 -33 74 -68 166
-6 16 -20 23 -53 27 -45 6 -212 73 -238 95 -8 7 -33 25 -55 40 -56 36 -112 88
-154 142 -19 25 -37 47 -40 50 -26 22 -90 230 -89 290 0 97 59 240 125 305
144 142 398 140 630 -5 18 -11 26 -6 80 50 149 157 314 245 534 285 114 20
202 18 321 -9z m5266 -785 c0 -10 -6 -17 -13 -14 -7 2 -15 0 -18 -6 -4 -5 3
-12 14 -16 11 -3 20 -14 20 -24 0 -27 -12 -33 -26 -13 -12 16 -13 16 -14 -3 0
-12 6 -27 13 -34 10 -11 10 -14 0 -18 -8 -3 -13 -22 -13 -47 0 -52 -33 -122
-61 -131 -11 -4 -18 -9 -16 -12 7 -6 78 33 77 44 0 4 7 16 16 27 12 14 18 16
24 6 6 -9 13 -9 31 0 23 11 23 10 5 -4 -11 -9 -27 -14 -36 -11 -11 4 -21 -3
-28 -20 -6 -14 -16 -25 -22 -25 -6 0 -26 -11 -43 -24 -18 -13 -93 -59 -167
-101 -74 -43 -162 -94 -195 -115 -33 -20 -80 -48 -105 -62 -126 -71 -466 -271
-474 -279 -6 -5 -17 -9 -25 -9 -14 0 -16 20 -13 147 2 127 5 150 20 161 9 7
100 60 202 119 102 58 217 124 255 146 39 23 88 51 110 63 22 12 114 64 205
116 198 113 274 157 277 157 1 1 1 -8 0 -18z m-4045 -474 c85 -51 316 -186
473 -277 61 -35 146 -85 190 -111 44 -26 98 -57 120 -69 22 -12 93 -54 158
-93 l117 -71 0 -533 c0 -317 -4 -533 -9 -533 -5 0 -20 17 -32 38 -13 20 -69
107 -125 192 -326 500 -341 522 -627 961 -56 86 -129 198 -163 250 -33 52 -87
135 -120 184 -64 98 -68 105 -60 105 3 0 38 -20 78 -43z m2225 15 c-10 -10
-17 -23 -17 -29 0 -6 -3 -13 -8 -15 -4 -1 -23 -28 -42 -58 -19 -30 -37 -57
-40 -60 -3 -3 -17 -23 -30 -45 -13 -22 -70 -110 -125 -195 -56 -85 -133 -203
-171 -263 -38 -59 -128 -198 -200 -310 -73 -111 -161 -247 -197 -302 -35 -55
-102 -158 -148 -230 -47 -71 -95 -147 -108 -167 -12 -21 -25 -38 -27 -38 -2 0
-4 243 -4 539 l0 539 173 100 c94 55 195 112 222 128 28 15 74 42 103 61 29
18 54 33 57 33 2 0 49 26 102 58 54 32 129 76 168 98 38 21 77 44 86 49 9 6
38 22 65 37 27 15 69 41 94 57 52 34 71 39 47 13z m6053 -1352 c0 -153 4 -178
37 -216 22 -26 30 -29 90 -29 60 0 67 2 88 29 31 38 35 65 35 217 0 79 4 129
10 130 47 6 45 14 45 -156 0 -176 -8 -204 -67 -248 -52 -39 -175 -38 -228 2
-56 41 -65 73 -68 243 -3 145 -2 156 15 160 40 9 43 1 43 -132z m548 -53 l2
-187 53 -2 c28 -1 81 -3 117 -3 63 -1 65 -2 68 -28 l3 -27 -150 0 -151 0 0
214 c0 221 1 226 40 221 13 -2 15 -32 18 -188z m615 183 c4 0 7 -11 7 -25 0
-24 -2 -25 -75 -25 l-75 0 0 -190 0 -190 -30 0 -30 0 0 190 0 190 -75 0 c-73
0 -75 1 -75 24 0 13 4 26 10 28 7 2 197 1 343 -2z m197 -216 l0 -214 -34 0
-34 0 -1 212 c0 131 4 215 10 219 6 3 21 4 35 1 l24 -4 0 -214z m325 67 c76
-128 90 -148 100 -133 7 9 46 76 89 148 76 130 102 157 126 129 7 -9 10 -83 9
-220 l-2 -206 -31 3 -31 3 -3 115 c-4 205 3 199 -81 56 -48 -82 -80 -126 -89
-124 -8 2 -45 54 -82 117 -38 62 -73 118 -79 124 -8 8 -11 -31 -11 -141 l0
-152 -30 0 -30 0 0 214 0 215 23 3 c12 2 25 3 28 2 3 -2 45 -71 94 -153z m701
145 c2 -1 139 -304 170 -373 l24 -53 -34 0 c-31 0 -35 4 -56 55 l-22 55 -115
0 -114 0 -24 -55 c-22 -49 -28 -55 -55 -55 -16 0 -30 2 -30 4 0 4 60 141 135
306 57 128 60 132 94 123 14 -3 27 -6 27 -7z m430 4 l154 0 0 -25 c0 -24 -2
-25 -75 -25 l-76 0 2 -187 1 -188 -31 -3 -31 -3 0 190 0 191 -69 0 c-62 0 -69
2 -74 22 -7 24 10 41 31 33 8 -3 83 -5 168 -5z m580 1 c6 -1 12 -12 12 -26 l0
-25 -124 0 -124 0 0 -65 0 -65 111 0 110 0 -3 -27 -3 -28 -107 -3 -108 -3 0
-63 c0 -78 2 -78 149 -71 l101 5 0 -30 0 -30 -155 0 -155 0 0 213 c0 118 2
216 4 218 3 3 222 3 292 0z m666 -2 c21 -5 50 -21 65 -34 26 -22 27 -25 11
-41 -15 -16 -18 -15 -51 5 -52 32 -140 29 -195 -6 -94 -61 -95 -207 -1 -274
36 -25 115 -35 163 -19 l36 12 0 74 0 74 30 0 30 0 0 -89 0 -89 -47 -22 c-61
-29 -166 -29 -220 -1 -133 68 -166 244 -65 349 61 65 152 87 244 61z m311 2
c4 0 7 -63 7 -138 1 -197 25 -243 127 -243 19 0 48 8 64 17 47 28 59 75 59
234 0 125 2 140 16 135 9 -3 22 -6 31 -6 13 0 14 -22 11 -157 -3 -171 -12
-203 -68 -245 -53 -39 -176 -40 -228 -1 -58 43 -67 73 -70 249 l-4 161 24 -2
c12 -1 26 -3 31 -4z m559 -216 l1 -210 -31 -3 -32 -3 0 215 0 215 23 3 c12 2
25 1 29 -2 5 -3 9 -100 10 -215z m464 205 c44 -15 99 -62 121 -104 11 -19 17
-56 17 -97 0 -90 -36 -151 -113 -191 -50 -26 -61 -28 -177 -28 l-124 0 0 218
0 217 120 -2 c66 -1 137 -7 156 -13z m600 -15 l2 -25 -124 0 -124 0 0 -65 0
-64 108 -3 c107 -3 107 -3 107 -28 l0 -25 -108 0 -107 0 0 -67 c0 -64 1 -68
25 -74 14 -3 70 -4 125 -1 l100 4 0 -28 0 -29 -155 0 -155 0 0 215 0 214 143
3 c78 2 147 2 152 0 6 -1 11 -13 11 -27z m-13419 -272 c4 -10 42 -69 85 -132
43 -63 78 -121 78 -130 0 -9 -3 -12 -8 -6 -4 6 -29 22 -57 37 -27 14 -73 39
-102 54 -28 15 -56 38 -62 51 -7 16 -16 21 -28 16 -16 -6 -17 -5 -3 12 8 11
23 27 33 37 9 10 17 29 17 42 0 22 10 33 33 35 4 1 11 -7 14 -16z m473 -56
c-3 -35 1 -44 10 -22 6 13 9 -9 9 -67 1 -53 -3 -88 -9 -88 -5 0 -10 -20 -10
-44 0 -40 -5 -49 -60 -104 -76 -77 -107 -92 -206 -99 -67 -5 -83 -3 -97 11
-10 10 -25 15 -36 11 -14 -4 -21 2 -31 25 -7 17 -10 33 -7 36 3 3 54 24 113
48 63 25 112 50 118 61 6 11 37 59 69 108 31 48 57 92 57 97 0 6 4 10 10 10 5
0 20 15 32 34 18 27 25 32 31 20 5 -8 8 -25 7 -37z m4080 -32 c0 -3 -21 -18
-47 -35 -27 -16 -41 -30 -33 -30 13 0 13 -2 0 -9 -8 -6 -18 -7 -23 -4 -5 3
-18 -5 -30 -18 -20 -21 -20 -22 -2 -15 39 16 55 18 55 8 0 -6 -5 -12 -11 -14
-8 -3 -11 -40 -11 -111 0 -59 -4 -120 -9 -135 -11 -31 -28 -42 -499 -317 -168
-97 -365 -213 -438 -256 -73 -44 -137 -79 -142 -79 -6 0 -10 68 -10 169 l0
169 103 60 c117 68 575 330 657 375 30 16 60 33 65 37 6 4 37 22 70 40 79 43
124 68 220 123 86 50 85 49 85 42z m7894 -349 c66 -28 70 -118 5 -151 -83 -44
-182 25 -149 104 12 29 59 60 93 61 10 0 32 -6 51 -14z m306 -371 l0 -325 -82
0 -83 0 3 325 3 325 79 0 80 0 0 -325z m620 0 l0 -325 -80 0 c-67 0 -80 3 -80
16 0 12 -5 14 -17 9 -121 -51 -206 -41 -286 34 -90 83 -91 265 -4 360 56 60
197 82 265 41 l32 -20 0 105 0 105 85 0 85 0 0 -325z m-5352 -18 l2 -307 -90
0 -90 0 0 120 0 121 -117 -3 -118 -3 0 -117 0 -118 -87 0 -88 0 0 305 0 306
86 -3 85 -3 2 -102 c1 -56 5 -105 9 -109 4 -4 56 -7 115 -8 l108 -1 3 105 c1
58 4 110 6 115 2 6 40 10 87 9 l84 -1 3 -306z m3450 293 c117 -36 155 -157 77
-247 l-32 -37 31 -16 c46 -24 80 -98 72 -155 -8 -53 -58 -108 -114 -126 -22
-7 -127 -14 -254 -16 l-218 -5 0 305 c0 283 1 306 18 310 37 11 378 0 420 -13z
m-1478 -80 l0 -60 55 0 55 0 0 -60 0 -60 -55 0 -55 0 0 -93 c0 -81 3 -96 20
-112 14 -13 28 -16 53 -11 33 6 34 5 46 -35 7 -23 15 -47 18 -55 9 -25 -63
-47 -130 -40 -136 14 -177 73 -177 254 l0 92 -35 0 -35 0 0 60 0 60 35 0 35 0
0 60 0 60 85 0 85 0 0 -60z m-5500 -554 l0 -565 -22 -15 c-12 -9 -26 -16 -30
-16 -5 0 -8 254 -8 564 l0 565 22 15 c12 9 26 16 30 16 5 0 8 -254 8 -564z
m3955 509 c144 -24 228 -168 184 -316 -17 -54 -63 -105 -123 -136 -43 -22 -64
-26 -131 -26 -120 0 -198 43 -248 138 -29 55 -29 155 1 211 23 45 80 100 121
116 31 12 120 26 141 23 8 -2 33 -6 55 -10z m2088 -12 c59 -18 132 -89 147
-141 39 -143 -33 -278 -172 -317 -184 -51 -352 61 -352 235 0 96 44 169 128
212 75 38 152 42 249 11z m-1678 -123 c27 -77 51 -138 54 -134 3 3 26 65 52
137 l45 132 73 0 73 0 46 -137 c26 -76 49 -138 53 -138 3 0 13 24 22 53 16 52
34 106 63 185 l16 42 69 0 c79 0 79 0 48 -80 -11 -30 -26 -73 -33 -95 -7 -22
-34 -100 -61 -172 l-47 -133 -82 0 -82 0 -40 116 c-21 64 -43 115 -49 115 -5
0 -28 -51 -51 -113 l-40 -113 -81 -3 -81 -3 -21 56 c-52 139 -133 371 -138
397 l-5 28 75 0 75 0 47 -140z m3015 -10 c0 -137 2 -152 20 -170 28 -28 90
-27 118 3 19 20 21 36 24 167 l3 145 83 3 82 3 0 -241 0 -240 -80 0 c-74 0
-80 2 -80 20 0 20 0 20 -38 1 -109 -56 -228 -22 -283 79 -10 18 -15 78 -17
203 l-4 177 86 0 86 0 0 -150z m608 -92 l2 -238 -85 0 -85 0 0 240 0 241 83
-3 82 -3 3 -237z m-7918 -328 c0 -469 -1 -490 -36 -490 -12 0 -14 76 -14 463
0 254 4 467 8 473 7 10 34 24 40 19 1 -1 2 -210 2 -465z m240 51 l0 -379 -25
-16 -25 -16 0 383 c0 390 2 407 37 407 10 0 13 -75 13 -379z m-84 -416 c-3
-11 -14 -26 -26 -33 -20 -12 -20 -12 -20 311 l0 324 23 10 22 10 3 -301 c1
-166 0 -310 -2 -321z m-306 130 c0 -313 0 -314 -22 -335 l-23 -21 -3 323 c-2
295 -1 324 15 336 9 6 20 12 25 12 4 0 8 -142 8 -315z m230 68 c0 -215 -2
-249 -17 -265 -9 -10 -20 -18 -25 -18 -4 0 -8 117 -8 259 0 198 3 261 13 264
37 15 37 13 37 -240z m-855 -327 c0 -413 -1 -426 -20 -440 -11 -8 -23 -12 -27
-10 -5 3 -8 198 -8 433 l0 428 23 10 c12 6 24 9 27 8 3 -2 5 -195 5 -429z
m465 120 c0 -274 0 -275 -22 -291 l-23 -15 -3 277 c-2 252 -1 279 15 291 9 6
20 12 25 12 4 0 8 -123 8 -274z m-79 -70 c0 -228 -1 -249 -18 -261 -10 -7 -21
-11 -25 -9 -5 3 -8 117 -8 254 0 227 2 250 18 259 9 6 20 9 25 8 4 -1 8 -114
8 -251z m159 38 c0 -176 -2 -198 -17 -210 -10 -7 -21 -14 -25 -14 -5 0 -8 92
-8 204 0 154 3 206 13 209 36 15 37 11 37 -189z m-470 -150 c0 -290 -1 -318
-17 -330 -10 -7 -21 -14 -25 -14 -5 0 -8 146 -8 324 0 346 -2 328 43 335 4 0
7 -141 7 -315z m-150 -53 c0 -357 -1 -363 -38 -373 -11 -2 -13 63 -13 347 0
320 1 351 17 362 10 7 21 13 26 13 4 0 8 -157 8 -349z m368 -141 c-13 -10 -25
-16 -28 -12 -3 4 -4 102 -2 218 3 207 3 211 25 221 l22 10 3 -209 c2 -207 2
-210 -20 -228z m2632 334 c0 -97 1 -106 18 -99 108 46 191 45 251 -3 63 -51
73 -85 79 -274 5 -160 4 -168 -14 -169 -11 -1 -48 -2 -84 -2 l-65 -1 -5 145
c-4 79 -9 151 -14 161 -10 23 -61 42 -91 34 -33 -8 -61 -40 -69 -78 -3 -17 -6
-82 -6 -144 l0 -114 -80 0 c-44 0 -80 3 -80 8 0 20 -1 619 0 630 0 8 23 12 80
12 l80 0 0 -106z m4260 -219 l0 -325 -47 -2 c-27 0 -61 -2 -77 -3 -20 -1 -30
3 -33 16 -5 19 -23 27 -23 11 0 -15 -66 -32 -120 -32 -108 0 -199 73 -220 176
-27 131 16 235 120 290 48 25 165 26 203 1 l27 -17 1 80 c1 44 3 85 4 90 1 6
3 17 4 25 1 12 17 15 81 15 l80 0 0 -325z m-4912 218 l-3 -68 -35 -2 c-19 0
-88 -2 -152 -2 l-118 -1 0 -50 0 -50 135 0 135 0 0 -65 0 -65 -135 0 -135 0 0
-55 0 -55 160 0 160 0 0 -63 0 -64 -178 -6 c-97 -4 -207 -4 -244 0 l-67 6 -3
299 c-2 165 -1 302 1 304 2 2 112 4 243 4 l239 0 -3 -67z m5462 -75 c125 -281
152 -344 176 -396 37 -82 37 -82 -62 -77 -48 2 -88 6 -89 7 -1 2 -11 26 -22
53 l-22 50 -133 3 -133 2 -20 -52 -20 -53 -88 -5 c-48 -3 -87 -1 -87 3 0 9 37
95 89 212 15 33 61 135 102 227 l74 168 86 0 86 0 63 -142z m-5180 52 c0 -60
0 -60 30 -61 81 -4 75 2 78 -66 l3 -63 -56 0 -55 0 0 -94 c0 -107 7 -119 66
-114 37 3 38 2 56 -51 14 -39 16 -57 8 -65 -6 -6 -49 -11 -103 -11 -80 0 -96
3 -125 23 -52 38 -65 73 -70 200 l-5 112 -34 0 -34 0 3 63 c3 62 3 62 36 65
l32 3 0 60 0 59 85 0 85 0 0 -60z m1144 -54 c101 -31 166 -118 166 -223 l0
-53 -170 0 c-112 0 -170 -4 -170 -10 0 -20 53 -60 79 -61 53 -2 87 3 114 19
27 16 28 16 74 -30 l46 -46 -48 -31 c-55 -35 -111 -46 -199 -39 -74 6 -127 29
-173 75 -45 45 -63 93 -63 167 0 76 35 153 87 193 64 49 170 65 257 39z m566
-61 l0 -75 -44 0 c-33 0 -52 -6 -73 -24 -28 -24 -28 -26 -33 -168 l-5 -143
-82 0 -83 0 0 238 0 237 80 0 c73 0 80 -2 80 -20 0 -22 10 -26 27 -9 14 14 82
38 111 39 21 0 22 -4 22 -75z m391 60 c98 -35 159 -120 159 -222 l0 -53 -170
0 c-112 0 -170 -4 -170 -10 0 -6 11 -22 25 -35 33 -34 111 -38 168 -8 29 15
30 14 74 -29 l44 -43 -28 -22 c-72 -58 -231 -70 -319 -25 -93 48 -134 115
-134 221 0 58 4 74 33 121 61 102 198 147 318 105z m1234 -4 c22 -10 46 -25
54 -35 13 -15 16 -15 45 7 63 48 146 60 213 32 48 -20 71 -41 94 -88 17 -33
19 -56 17 -210 l-3 -172 -70 -1 c-38 -1 -75 1 -82 3 -7 3 -12 50 -12 150 -2
161 -8 180 -59 189 -28 6 -39 2 -60 -20 -26 -26 -27 -30 -30 -171 -3 -102 -7
-145 -15 -145 -7 -1 -43 -2 -82 -2 l-70 -2 -5 153 c-5 146 -6 154 -29 172 -32
26 -67 24 -96 -6 -24 -23 -25 -28 -25 -170 l0 -145 -60 -1 c-33 -1 -70 -2 -82
-2 l-23 -1 -3 237 -2 237 80 0 c71 0 80 -2 80 -19 0 -17 3 -17 47 5 56 29 122
31 178 5z m2478 3 c94 -32 149 -118 148 -235 0 -92 -35 -160 -106 -204 -63
-39 -152 -46 -213 -17 l-42 20 0 -98 0 -97 -72 -5 c-40 -3 -78 -3 -85 -1 -10
4 -13 75 -13 324 l0 319 80 0 c74 0 80 -1 80 -21 0 -20 0 -20 28 -1 49 35 122
41 195 16z m652 -18 c116 -69 148 -241 67 -361 -57 -84 -202 -122 -280 -75
-18 11 -35 20 -37 20 -3 0 -5 -45 -5 -100 l0 -100 -85 0 -85 0 0 320 0 320 80
0 c71 0 80 -2 80 -19 0 -17 3 -17 48 6 63 33 149 28 217 -11z m538 13 c20 -7
37 -19 37 -26 0 -11 -34 -88 -44 -100 -1 -1 -24 4 -51 12 -61 19 -126 19 -151
1 -17 -13 -17 -16 -4 -29 8 -8 51 -21 95 -30 109 -21 132 -31 155 -69 43 -71
15 -159 -62 -199 -58 -31 -202 -38 -279 -15 -85 25 -86 25 -59 90 12 31 23 56
25 56 1 0 16 -7 34 -16 47 -23 183 -31 199 -11 10 12 10 18 -3 31 -9 9 -26 16
-38 16 -12 0 -53 7 -92 15 -57 12 -76 21 -102 50 -27 29 -33 43 -33 80 0 81
45 132 136 154 48 13 186 6 237 -10z m-4493 -129 c0 -82 5 -149 11 -164 21
-46 104 -45 134 1 13 20 18 56 21 162 l4 136 80 3 80 3 -2 -238 -3 -238 -25 1
c-132 4 -130 3 -130 24 0 20 -1 20 -37 -5 -30 -20 -50 -25 -98 -25 -83 0 -142
30 -175 90 -23 42 -25 55 -28 218 l-4 172 86 0 86 0 0 -140z m-5220 -122 l-1
-253 -24 -18 -25 -18 0 260 c0 237 2 261 18 270 9 6 20 11 25 11 4 0 7 -114 7
-252z m310 79 c0 -153 -5 -177 -37 -177 -18 0 -19 316 0 323 36 15 37 10 37
-146z m10312 34 c-10 -6 -8 -10 10 -16 l23 -8 -24 -4 c-13 -3 -27 1 -32 9 -6
10 -11 10 -21 0 -6 -6 -21 -12 -32 -12 -12 0 -28 -5 -36 -11 -15 -11 7 -9 70
7 20 5 22 4 10 -6 -12 -9 -10 -10 10 -4 22 6 23 5 8 -10 -9 -9 -24 -16 -32
-16 -9 0 -16 -7 -16 -16 0 -9 -8 -23 -17 -31 -16 -12 -14 -13 17 -10 19 2 27
2 18 0 -13 -3 -18 -15 -18 -44 0 -32 -3 -39 -20 -39 -17 0 -20 7 -20 41 0 24
-4 38 -10 34 -5 -3 -10 -22 -10 -41 0 -19 5 -34 10 -34 6 0 10 -18 10 -40 0
-33 -3 -40 -20 -40 -17 0 -20 -7 -20 -40 0 -29 -4 -40 -15 -40 -10 0 -16 -12
-17 -37 l-1 -38 -4 38 c-6 50 -23 48 -23 -3 0 -22 -4 -40 -10 -40 -5 0 -10
-18 -10 -40 0 -22 -4 -40 -10 -40 -5 0 -10 -18 -10 -40 0 -33 -3 -40 -20 -40
-18 0 -20 -7 -20 -80 0 -47 -4 -80 -10 -80 -5 0 -10 -18 -10 -40 0 -28 -4 -40
-14 -40 -10 0 -16 -13 -18 -37 -3 -33 -7 -39 -33 -43 -26 -4 -30 -10 -33 -43
-2 -20 -7 -37 -13 -37 -5 0 -9 -18 -9 -40 0 -22 -4 -40 -10 -40 -5 0 -10 -18
-10 -40 0 -22 -4 -40 -10 -40 -5 0 -10 -18 -10 -39 0 -39 -1 -40 -37 -43 -36
-3 -38 -5 -41 -40 -2 -21 -7 -38 -13 -38 -5 0 -9 -18 -9 -40 0 -22 5 -40 10
-40 6 0 10 -18 10 -40 0 -38 -2 -40 -30 -40 -28 0 -30 -3 -30 -35 0 -19 5 -35
10 -35 6 0 10 -5 10 -11 0 -5 -5 -7 -12 -3 -7 5 -25 7 -40 6 -24 -2 -28 1 -29
25 0 16 -3 22 -6 15 -3 -7 -2 -24 1 -38 6 -21 11 -25 31 -20 26 7 45 -15 45
-53 0 -15 -4 -19 -17 -14 -16 6 -16 5 -5 -10 8 -9 12 -22 10 -29 -2 -6 -14 8
-27 33 -12 24 -30 58 -40 74 -88 152 -151 444 -137 635 9 122 49 270 103 383
25 53 50 97 55 97 4 0 8 5 8 10 0 14 68 105 117 155 54 56 121 113 168 144 22
14 42 28 45 31 6 6 35 24 75 47 81 45 297 122 237 84z m-15865 -93 c2 -17 0
-19 -7 -8 -8 12 -11 12 -28 -3 -10 -9 -23 -17 -29 -17 -6 0 -17 -7 -24 -17
-11 -13 -11 -17 -1 -20 6 -3 12 -9 12 -15 0 -7 -4 -7 -13 0 -9 8 -23 7 -50 -2
-45 -15 -52 -22 -32 -30 9 -3 13 -2 10 4 -3 6 5 10 19 10 14 0 26 -4 26 -10 0
-5 7 -10 15 -10 19 0 9 -22 -29 -62 -26 -27 -38 -98 -16 -98 6 0 10 -18 10
-40 0 -36 -2 -40 -25 -40 -22 0 -25 -4 -25 -39 0 -29 -5 -41 -17 -44 -14 -4
-13 -5 4 -6 12 0 28 6 37 14 8 8 17 15 20 15 3 0 6 -7 6 -15 0 -8 -4 -15 -10
-15 -5 0 -10 -5 -10 -11 0 -7 7 -8 18 -4 42 17 45 16 17 -9 -16 -14 -35 -25
-41 -26 -6 0 -17 -7 -25 -16 -7 -8 -21 -13 -31 -11 -10 3 -16 1 -13 -3 3 -5
-39 -35 -92 -66 -54 -32 -131 -77 -171 -101 -40 -24 -77 -43 -82 -43 -6 0 -10
-4 -10 -10 0 -5 -11 -12 -25 -16 -14 -3 -25 -9 -25 -13 0 -3 -18 -15 -40 -25
-22 -11 -40 -23 -40 -28 0 -4 -6 -8 -13 -8 -7 0 -46 -20 -86 -45 -40 -25 -74
-45 -76 -45 -2 0 -63 -35 -137 -79 -235 -138 -532 -310 -551 -316 -16 -7 -17
8 -17 214 l0 220 101 58 c55 32 128 74 162 94 34 19 112 64 172 98 61 34 227
130 370 212 143 83 287 165 320 184 33 18 89 49 123 69 35 20 67 36 70 36 3 0
13 6 21 14 9 7 43 28 75 45 33 17 65 36 71 41 9 8 105 59 110 60 1 0 2 -10 2
-22z m3783 -286 c0 -4 -10 -14 -21 -22 -12 -8 -27 -21 -35 -27 -7 -7 -19 -13
-26 -14 -9 0 -10 -2 -1 -5 7 -3 22 0 33 6 23 12 43 4 23 -8 -7 -4 -13 -40 -15
-82 -3 -64 -6 -76 -23 -82 -11 -4 -2 -5 20 -2 49 7 62 18 46 38 -10 12 -8 17
9 26 27 14 42 3 16 -12 -14 -8 -15 -12 -5 -18 10 -7 10 -11 0 -24 -8 -9 -17
-16 -22 -16 -7 0 -65 -35 -94 -57 -6 -5 -28 -18 -50 -30 -22 -11 -56 -30 -75
-42 -19 -11 -49 -28 -67 -36 -18 -9 -37 -23 -44 -31 -6 -8 -15 -14 -20 -14 -5
0 -71 -37 -146 -81 -76 -45 -190 -112 -253 -149 -63 -37 -155 -91 -205 -120
-49 -29 -115 -67 -145 -83 -30 -17 -66 -38 -80 -47 -40 -27 -327 -190 -334
-190 -4 0 -5 59 -4 132 l3 132 155 89 c85 49 180 102 210 119 30 17 83 49 118
70 34 21 64 38 67 38 2 0 42 22 87 49 46 26 106 61 133 76 70 40 147 84 165
95 32 19 457 257 493 275 21 11 46 28 55 37 18 18 32 23 32 10z m661 -375 c-6
-8 -7 -17 -3 -22 4 -4 -3 -4 -15 -1 -18 6 -22 4 -17 -7 3 -8 1 -18 -5 -22 -6
-3 -11 -14 -11 -25 0 -10 -11 -23 -27 -29 -16 -6 -48 -25 -73 -41 -25 -16 -52
-33 -60 -37 -8 -4 -76 -44 -152 -90 -139 -83 -192 -113 -203 -113 -3 0 -5 18
-5 39 l0 39 161 92 c88 50 200 112 247 138 48 25 105 56 127 68 48 27 51 28
36 11z m-4298 -207 c9 -36 28 -153 42 -260 14 -107 30 -220 35 -250 6 -30 19
-121 30 -201 11 -81 24 -159 30 -173 5 -15 10 -61 10 -101 l0 -74 -72 -42
c-40 -23 -106 -62 -145 -86 -40 -23 -75 -43 -78 -43 -3 0 -29 -15 -58 -33 -29
-19 -75 -46 -102 -61 -28 -16 -158 -91 -290 -168 -132 -77 -294 -172 -360
-210 -66 -39 -156 -92 -200 -118 -44 -26 -102 -60 -130 -75 -27 -15 -75 -42
-105 -60 -30 -18 -107 -62 -170 -99 l-115 -66 -3 171 c-2 134 1 181 13 213 16
45 37 184 89 598 41 321 50 365 78 374 11 3 23 2 28 -3 18 -19 49 -189 75
-403 20 -164 50 -332 65 -360 37 -69 66 39 125 460 44 322 52 354 82 348 12
-2 26 -44 53 -153 42 -168 62 -222 85 -231 22 -9 40 19 59 86 33 121 42 177
102 630 25 188 45 265 67 257 19 -6 35 -88 87 -452 47 -332 80 -484 107 -492
25 -9 60 94 117 347 8 36 18 79 21 97 6 29 30 61 39 52 2 -2 16 -49 31 -104
29 -109 79 -238 98 -254 7 -5 18 -7 24 -3 25 16 65 180 83 343 6 51 15 123 20
159 5 36 14 108 20 160 29 228 49 335 67 347 22 17 27 10 46 -67z m4544 -113
c-3 -8 -31 -29 -63 -48 -87 -52 -130 -77 -173 -101 -120 -70 -156 -93 -159
-100 -2 -4 -8 -8 -14 -8 -6 0 -58 -29 -117 -64 -58 -35 -137 -83 -176 -105
l-70 -42 -3 83 c-3 91 2 128 20 128 6 0 16 7 22 15 6 8 27 17 46 19 21 2 43
14 57 30 12 14 27 26 33 26 5 0 10 4 10 9 0 5 7 12 16 15 12 4 14 1 9 -14 -9
-28 5 -25 46 13 63 56 73 62 99 59 34 -5 52 -22 47 -44 -4 -14 1 -18 20 -18
28 0 83 29 83 44 0 5 7 18 17 28 18 20 105 26 101 7 -2 -6 3 -14 11 -17 10 -3
13 1 9 16 -4 14 -2 19 7 16 7 -3 16 -1 20 5 3 6 -1 11 -10 11 -9 0 -13 5 -10
11 4 5 21 8 38 5 24 -5 27 -4 12 3 -18 8 -18 10 -3 16 9 4 22 4 28 0 5 -3 10
0 11 7 0 7 4 4 9 -7 7 -17 9 -16 9 10 1 21 4 26 12 18 7 -7 9 -18 6 -26z
m-4137 -37 c4 0 60 -31 124 -70 65 -38 119 -70 121 -70 2 0 16 -11 31 -25 15
-14 33 -25 40 -25 7 0 15 -4 19 -10 3 -5 -7 -5 -25 1 -23 8 -34 8 -45 -1 -17
-14 -21 -35 -5 -25 6 3 10 0 10 -9 0 -8 5 -16 11 -18 9 -3 9 -9 1 -24 -7 -13
-7 -25 0 -37 5 -10 7 -29 4 -43 -5 -18 -2 -24 11 -25 11 0 13 -3 6 -6 -19 -7
-16 -19 10 -44 12 -12 17 -20 11 -18 -27 10 -149 75 -152 82 -2 4 -8 7 -12 7
-5 0 -43 20 -83 45 -41 25 -80 45 -86 45 -8 0 -11 45 -10 148 0 81 3 141 6
135 2 -7 8 -13 13 -13z m2432 -272 c-22 -14 -30 -23 -22 -28 9 -6 7 -11 -6
-18 -10 -6 -16 -13 -12 -17 3 -4 20 3 37 16 17 12 33 20 36 17 10 -10 -64 -48
-80 -41 -10 3 -15 1 -13 -7 2 -10 -95 -72 -297 -190 -16 -9 -82 -47 -145 -85
-486 -286 -568 -333 -572 -329 -3 2 -2 22 1 45 l6 41 336 191 c497 284 581
331 600 339 9 4 20 12 24 18 5 8 11 8 21 -1 12 -10 18 -9 31 4 15 15 14 16 -8
11 -14 -3 -4 7 26 24 57 34 87 42 37 10z m-2430 -35 c2 -5 28 -21 58 -37 30
-16 62 -34 70 -41 8 -7 30 -20 48 -30 19 -9 32 -18 30 -21 -3 -2 -19 3 -36 12
-32 15 -58 11 -46 -7 3 -6 16 -14 28 -19 19 -8 19 -9 -6 -9 l-28 -1 0 -154 c0
-93 4 -157 10 -161 16 -10 12 -25 -7 -25 -15 0 -16 2 -3 10 13 8 13 10 -2 10
-32 0 -28 -18 10 -36 20 -9 32 -19 25 -21 -6 -2 -39 10 -72 26 -33 17 -63 31
-66 31 -3 0 -5 -31 -5 -70 0 -38 4 -70 8 -70 5 0 17 -8 28 -18 10 -9 31 -23
46 -29 47 -21 108 -63 108 -74 0 -6 -5 -9 -11 -7 -6 2 -10 7 -9 12 1 5 -6 13
-15 19 -13 7 -22 4 -37 -11 -18 -17 -18 -23 -7 -43 7 -13 12 -27 11 -31 -1 -4
7 -10 18 -13 11 -4 20 -11 20 -17 0 -5 -6 -8 -12 -5 -7 3 -22 8 -33 12 l-20 7
20 -16 c11 -9 28 -23 38 -31 9 -8 25 -16 35 -16 15 -1 15 -2 0 -6 -9 -2 -35 7
-57 21 -22 14 -43 26 -45 26 -3 0 -29 14 -58 31 -29 17 -87 50 -128 72 -41 22
-79 43 -83 47 -8 7 123 90 142 90 6 0 11 6 11 13 1 6 0 141 0 300 0 177 3 287
9 287 5 0 11 -3 13 -7z m597 -190 c-1 -10 -1 -20 0 -23 6 -23 4 -680 -1 -680
-5 0 -8 -5 -8 -11 0 -6 7 -9 15 -5 34 13 10 -8 -69 -59 -46 -30 -87 -55 -90
-55 -3 0 -6 177 -6 393 l0 392 58 32 c65 36 104 42 101 16z m3584 -324 c23
-12 125 -70 227 -129 186 -109 909 -525 1204 -695 88 -50 161 -96 163 -102 2
-6 -31 -30 -74 -55 -43 -24 -235 -136 -428 -248 -192 -112 -390 -226 -440
-255 -131 -76 -381 -221 -525 -305 -69 -40 -145 -84 -170 -98 -25 -13 -70 -39
-100 -58 -50 -30 -451 -262 -528 -305 -38 -22 -80 -24 -107 -6 -11 8 -45 27
-75 44 -60 33 -416 237 -440 253 -14 8 -86 50 -205 118 -27 16 -203 118 -390
226 -187 109 -372 217 -412 239 -40 23 -71 46 -69 52 3 11 78 57 291 180 88
50 309 178 490 284 182 106 389 227 460 269 146 85 313 181 490 285 66 38 152
88 190 110 39 22 81 47 95 56 14 8 39 23 55 32 17 9 71 41 120 72 50 30 100
55 113 56 12 1 42 -9 65 -20z m-2093 -364 c0 -2 -35 -25 -78 -49 -69 -40 -86
-56 -146 -138 -59 -81 -78 -99 -144 -138 -64 -38 -87 -60 -139 -130 -35 -46
-63 -79 -63 -73 0 5 25 42 55 81 58 76 69 98 33 65 -39 -34 -88 -65 -88 -55 0
6 20 22 45 36 25 15 45 30 45 35 0 4 16 26 36 49 19 23 31 42 26 42 -5 0 -40
-18 -78 -40 -37 -22 -70 -37 -73 -35 -6 7 -7 6 82 54 42 24 90 53 106 67 16
13 36 24 46 24 16 0 75 55 103 96 10 16 10 15 1 -6 -24 -49 -53 -80 -96 -101
-28 -13 -60 -43 -89 -81 -25 -32 -45 -61 -43 -63 2 -1 36 15 74 36 77 43 101
68 176 176 28 40 62 76 77 82 15 7 48 25 72 41 43 29 60 36 60 25z"/>
<path d="M13893 6912 l-42 -97 86 -3 c47 -2 87 -1 90 1 5 6 -78 197 -86 197
-3 0 -25 -44 -48 -98z"/>
<path d="M16770 6871 l0 -159 31 -7 c47 -11 152 4 187 26 48 29 72 75 72 139
0 111 -63 159 -207 160 l-83 0 0 -159z"/>
<path d="M17221 5984 c-53 -37 -60 -132 -14 -179 20 -19 36 -25 68 -25 61 0
95 41 95 112 0 41 -5 54 -29 79 -34 34 -83 39 -120 13z"/>
<path d="M15379 6125 c-1 -8 -2 -34 -3 -57 l-1 -43 75 -3 c96 -3 125 10 125
58 0 46 -29 60 -122 60 -58 0 -73 -3 -74 -15z"/>
<path d="M15379 5885 c-1 -8 -2 -28 -2 -45 0 -63 -5 -60 101 -60 83 0 102 3
115 18 25 27 21 67 -8 86 -34 22 -204 23 -206 1z"/>
<path d="M12500 5993 c-45 -18 -69 -90 -50 -147 15 -46 44 -66 96 -66 59 0 94
41 94 112 0 41 -5 54 -29 79 -29 28 -72 37 -111 22z"/>
<path d="M14550 5993 c-46 -18 -70 -88 -50 -147 15 -46 44 -66 95 -66 62 0 95
38 95 109 0 45 -4 57 -29 82 -29 29 -71 37 -111 22z"/>
<path d="M14828 4933 c-43 -27 -61 -103 -37 -156 13 -29 58 -57 93 -57 42 0
85 47 92 100 11 95 -73 159 -148 113z"/>
<path d="M15502 4945 c-18 -47 -32 -90 -32 -95 0 -6 31 -10 70 -10 39 0 70 4
70 10 0 13 -60 163 -69 172 -3 4 -21 -31 -39 -77z"/>
<path d="M16165 4938 c-39 -21 -55 -51 -55 -105 0 -67 27 -102 87 -110 37 -5
45 -2 73 25 26 26 30 38 30 82 0 60 -19 94 -62 109 -38 13 -48 13 -73 -1z"/>
<path d="M16784 4941 c-12 -5 -31 -22 -44 -38 -18 -23 -21 -37 -18 -81 6 -64
29 -91 85 -99 96 -13 149 113 80 192 -24 28 -71 39 -103 26z"/>
<path d="M7320 2873 c-28 -10 -110 -65 -110 -74 0 -5 26 -22 58 -38 l58 -29
62 34 c34 19 62 39 62 45 0 10 -90 69 -105 68 -5 0 -17 -3 -25 -6z"/>
<path d="M7421 2757 c-30 -18 -56 -37 -58 -42 -3 -12 90 -65 113 -65 25 0 124
60 124 74 0 14 -89 66 -111 66 -8 0 -38 -15 -68 -33z"/>
<path d="M7100 2746 c-30 -18 -54 -37 -54 -42 1 -5 27 -22 58 -39 l55 -30 56
30 c83 44 84 49 28 84 -26 17 -57 31 -68 30 -11 0 -45 -15 -75 -33z"/>
<path d="M7556 2664 c-43 -24 -82 -44 -87 -44 -4 0 -35 16 -68 35 -32 19 -69
35 -81 35 -12 0 -84 -37 -161 -82 -112 -66 -137 -85 -126 -95 18 -19 240 -143
255 -143 11 0 84 38 192 102 19 11 82 47 140 80 133 77 140 82 132 94 -9 12
-98 64 -109 63 -4 0 -43 -20 -87 -45z"/>
<path d="M6940 2655 c-30 -18 -55 -39 -55 -46 0 -7 25 -27 56 -43 l56 -29 61
37 c34 21 62 42 62 47 0 10 -100 69 -115 68 -5 0 -35 -16 -65 -34z"/>
<path d="M7718 2578 c-27 -16 -48 -35 -48 -41 0 -12 91 -67 109 -67 14 0 131
71 131 80 0 12 -97 60 -121 59 -13 0 -45 -14 -71 -31z"/>
<path d="M6743 2542 c-45 -26 -83 -52 -83 -59 0 -14 82 -63 108 -63 23 0 182
88 182 101 0 13 -90 69 -109 69 -9 0 -53 -22 -98 -48z"/>
<path d="M7880 2496 c-30 -18 -55 -39 -55 -46 0 -7 23 -26 52 -42 l51 -28 63
33 c35 19 65 39 67 45 3 11 -93 72 -113 72 -5 -1 -35 -16 -65 -34z"/>
<path d="M7558 2487 c-32 -18 -58 -37 -58 -43 0 -13 91 -64 116 -64 25 0 125
62 121 74 -5 14 -88 64 -107 65 -8 0 -41 -14 -72 -32z"/>
<path d="M6920 2468 c-29 -18 -53 -37 -53 -43 0 -5 25 -23 55 -40 52 -27 58
-28 85 -15 44 23 103 62 103 69 0 10 -97 61 -117 61 -10 0 -43 -15 -73 -32z"/>
<path d="M6543 2427 c-29 -17 -53 -35 -53 -39 0 -11 91 -68 108 -68 21 0 143
71 137 80 -10 16 -98 60 -119 59 -11 0 -45 -15 -73 -32z"/>
<path d="M7403 2397 c-35 -17 -65 -37 -67 -44 -5 -13 87 -73 111 -73 7 0 40
16 74 36 68 41 68 42 -11 87 l-45 26 -62 -32z"/>
<path d="M7710 2399 c-30 -18 -57 -33 -59 -35 -14 -12 83 -74 115 -74 21 0
124 64 124 77 0 13 -89 63 -112 63 -7 0 -38 -14 -68 -31z"/>
<path d="M7130 2413 c-39 -13 -170 -97 -167 -106 4 -13 86 -65 103 -66 15 -1
194 101 194 110 0 12 -115 67 -130 62z"/>
<path d="M6803 2400 c-36 -15 -103 -60 -103 -69 0 -5 25 -24 55 -41 l55 -32
65 37 c36 20 65 40 65 45 0 9 -98 71 -110 69 -3 0 -15 -4 -27 -9z"/>
<path d="M6383 2334 c-35 -19 -63 -38 -63 -42 1 -10 91 -63 110 -65 22 -1 128
54 134 70 5 11 -90 73 -110 73 -5 0 -37 -16 -71 -36z"/>
<path d="M7555 2311 c-82 -47 -82 -52 -18 -91 l57 -33 65 35 c36 20 67 40 68
45 3 8 -100 73 -115 73 -4 0 -30 -13 -57 -29z"/>
<path d="M7223 2294 c-35 -19 -63 -38 -63 -42 0 -4 27 -22 60 -40 l60 -33 65
38 c36 20 65 40 65 44 0 9 -103 69 -116 69 -5 0 -37 -16 -71 -36z"/>
<path d="M6593 2280 c-28 -16 -54 -34 -57 -39 -7 -10 86 -71 109 -71 13 0 135
67 135 75 0 8 -102 65 -118 65 -9 0 -40 -14 -69 -30z"/>
<path d="M6848 2254 c-32 -20 -58 -40 -58 -45 0 -13 95 -59 122 -59 20 0 128
63 128 75 0 7 -108 65 -121 65 -8 0 -40 -17 -71 -36z"/>
<path d="M6213 2237 c-29 -17 -53 -36 -53 -42 0 -12 92 -65 113 -65 21 0 127
63 127 75 0 13 -95 65 -118 65 -9 -1 -41 -15 -69 -33z"/>
<path d="M7343 2192 c-45 -26 -83 -52 -83 -57 0 -14 86 -65 111 -65 19 0 175
85 185 101 6 10 -94 69 -116 69 -8 0 -52 -22 -97 -48z"/>
<path d="M7065 2204 c-22 -14 -47 -29 -55 -34 -13 -8 -13 -10 0 -23 8 -8 34
-25 58 -38 l44 -24 64 35 c35 19 64 39 64 44 -1 16 -88 66 -113 65 -12 0 -40
-12 -62 -25z"/>
<path d="M6413 2177 c-29 -18 -53 -35 -53 -40 0 -4 10 -12 23 -17 12 -5 36
-18 52 -29 17 -12 35 -21 42 -21 14 0 133 70 133 79 0 14 -92 61 -118 60 -15
0 -51 -15 -79 -32z"/>
<path d="M6687 2161 c-27 -16 -53 -33 -59 -39 -15 -15 97 -76 125 -68 29 8
117 64 117 74 0 13 -94 62 -116 61 -11 0 -41 -13 -67 -28z"/>
<path d="M6055 2145 c-33 -18 -60 -39 -60 -45 0 -6 25 -25 56 -42 l56 -31 67
38 c36 22 66 42 66 46 0 6 -113 70 -121 69 -2 -1 -31 -16 -64 -35z"/>
<path d="M6893 2104 c-35 -20 -63 -39 -63 -44 0 -4 27 -22 60 -39 l59 -32 66
38 c36 20 65 40 65 43 0 7 -105 70 -117 70 -4 -1 -36 -17 -70 -36z"/>
<path d="M6258 2087 c-32 -18 -58 -36 -58 -42 0 -13 92 -65 115 -65 25 0 125
59 125 73 0 13 -92 67 -113 67 -6 -1 -38 -15 -69 -33z"/>
<path d="M7160 2084 c-25 -15 -79 -45 -120 -69 -41 -23 -172 -98 -290 -167
-118 -68 -239 -137 -267 -153 -29 -15 -53 -33 -53 -40 0 -14 90 -65 114 -65
15 0 278 147 388 216 21 13 40 24 43 24 2 0 42 22 87 49 46 27 125 73 177 103
52 30 96 59 98 64 4 13 -87 64 -113 64 -11 0 -39 -12 -64 -26z"/>
<path d="M6526 2067 c-33 -18 -61 -37 -63 -42 -5 -15 95 -71 119 -67 31 5 113
57 113 72 0 13 -79 68 -100 69 -5 0 -37 -14 -69 -32z"/>
<path d="M5883 2047 c-29 -17 -53 -37 -53 -43 0 -15 85 -64 110 -64 20 0 129
61 130 71 0 12 -97 69 -116 68 -10 0 -43 -15 -71 -32z"/>
<path d="M6716 2003 c-55 -34 -58 -37 -40 -50 43 -33 97 -54 120 -49 33 9 114
59 114 71 0 13 -93 65 -116 65 -11 0 -45 -17 -78 -37z"/>
<path d="M6083 1987 c-29 -17 -53 -34 -53 -38 0 -9 103 -69 118 -69 15 0 125
64 129 75 4 14 -92 65 -120 64 -12 0 -46 -15 -74 -32z"/>
<path d="M6358 1970 c-27 -17 -52 -30 -58 -30 -5 0 -10 -7 -10 -15 0 -8 5 -15
10 -15 6 0 28 -11 50 -25 22 -14 45 -25 52 -25 22 -1 138 64 135 75 -4 13 -97
65 -117 65 -8 0 -36 -14 -62 -30z"/>
<path d="M5712 1947 c-28 -17 -51 -36 -49 -42 6 -18 106 -67 125 -60 9 3 41
20 70 39 l54 33 -50 31 c-61 40 -83 40 -150 -1z"/>
<path d="M6569 1917 c-35 -19 -64 -38 -66 -44 -2 -6 22 -26 53 -44 l57 -32 36
19 c91 47 102 56 91 69 -6 8 -33 25 -60 39 l-49 26 -62 -33z"/>
<path d="M5930 1898 c-29 -18 -55 -38 -57 -44 -5 -14 81 -64 108 -64 23 0 129
58 129 71 0 10 -99 69 -115 69 -6 0 -35 -15 -65 -32z"/>
<path d="M6182 1869 c-29 -16 -52 -36 -50 -42 2 -7 29 -25 59 -41 l54 -28 63
36 c34 20 62 41 62 46 0 13 -89 60 -114 60 -11 0 -45 -14 -74 -31z"/>
<path d="M5548 1854 c-32 -20 -58 -39 -58 -43 0 -11 97 -61 119 -61 21 0 130
60 131 72 0 9 -105 68 -121 68 -8 0 -40 -17 -71 -36z"/>
<path d="M6420 1830 c-14 -11 -29 -20 -35 -20 -5 0 -21 -9 -34 -19 l-25 -19
50 -31 c27 -17 59 -31 71 -31 27 0 134 61 130 75 -4 13 -97 65 -117 65 -8 0
-26 -9 -40 -20z"/>
<path d="M5753 1797 c-29 -18 -53 -35 -53 -39 0 -9 98 -68 114 -68 13 0 136
68 136 75 0 11 -104 65 -123 64 -12 0 -46 -15 -74 -32z"/>
<path d="M6021 1777 c-30 -18 -56 -37 -58 -42 -3 -12 90 -65 113 -65 18 0 120
56 129 70 6 10 -95 70 -116 70 -8 -1 -38 -15 -68 -33z"/>
<path d="M5386 1757 c-33 -18 -58 -36 -57 -42 1 -5 26 -23 56 -40 l55 -30 65
34 c36 19 65 38 65 41 0 18 -85 70 -112 70 -7 0 -40 -15 -72 -33z"/>
<path d="M6223 1718 c-29 -16 -53 -34 -53 -38 0 -10 93 -70 109 -70 21 0 142
71 136 80 -11 17 -95 60 -117 59 -13 0 -47 -14 -75 -31z"/>
<path d="M5614 1714 c-27 -14 -57 -33 -66 -42 -17 -17 -15 -19 42 -51 l60 -33
65 38 c36 21 65 41 65 44 0 6 -102 70 -111 70 -4 0 -28 -12 -55 -26z"/>
<path d="M5857 1682 c-37 -20 -67 -39 -67 -42 0 -3 26 -21 57 -39 l57 -34 65
34 c36 19 66 39 68 45 2 6 -22 25 -54 42 l-58 31 -68 -37z"/>
<path d="M5226 1666 c-33 -18 -61 -37 -63 -42 -4 -12 87 -67 112 -66 11 0 46
15 77 33 44 25 55 36 47 46 -12 13 -97 63 -108 63 -3 -1 -33 -16 -65 -34z"/>
<path d="M8000 1651 c-25 -15 -65 -39 -90 -53 -25 -14 -106 -60 -180 -103 -74
-43 -208 -120 -297 -171 -90 -52 -174 -94 -187 -94 -14 0 -76 30 -138 66 -62
37 -131 77 -153 89 -22 13 -86 50 -143 84 -102 60 -122 69 -122 53 0 -7 60
-42 284 -170 23 -13 87 -50 143 -83 56 -32 113 -59 128 -59 27 0 47 11 355
190 393 228 435 253 450 267 25 22 -3 14 -50 -16z"/>
<path d="M6060 1624 c-30 -18 -56 -37 -57 -41 -3 -12 89 -65 112 -65 21 0 135
61 135 73 0 11 -101 69 -118 68 -9 0 -42 -16 -72 -35z"/>
<path d="M5403 1592 c-46 -26 -83 -52 -83 -58 0 -6 25 -24 55 -40 l55 -29 86
45 c47 25 90 50 95 57 7 8 -6 20 -44 42 -30 17 -61 31 -68 31 -8 0 -51 -22
-96 -48z"/>
<path d="M6328 1606 c-34 -19 -63 -39 -63 -46 0 -6 25 -26 55 -43 l56 -30 67
37 c77 43 77 51 -4 91 l-47 24 -64 -33z"/>
<path d="M5710 1598 c-20 -13 -44 -28 -55 -34 -10 -6 -20 -15 -22 -20 -4 -13
83 -64 109 -64 23 0 128 57 128 70 0 10 -96 70 -113 70 -7 0 -28 -10 -47 -22z"/>
<path d="M5893 1528 c-29 -16 -53 -35 -53 -42 0 -6 25 -25 55 -41 l55 -30 65
35 c36 19 65 40 65 45 0 15 -88 65 -113 64 -12 0 -46 -14 -74 -31z"/>
<path d="M6153 1507 c-29 -17 -53 -36 -53 -42 0 -14 86 -65 110 -65 25 0 130
62 127 75 -5 15 -90 63 -112 63 -11 0 -44 -14 -72 -31z"/>
<path d="M5527 1491 c-73 -43 -73 -44 -17 -79 28 -18 58 -32 67 -32 21 0 134
71 128 80 -9 15 -94 60 -112 60 -10 0 -40 -13 -66 -29z"/>
<path d="M5729 1432 c-37 -20 -77 -45 -90 -54 -24 -17 -24 -18 -4 -34 11 -8
37 -24 58 -35 l38 -20 62 34 c95 52 127 72 127 77 0 7 -83 57 -106 63 -11 3
-46 -9 -85 -31z"/>
<path d="M5985 1409 c-27 -15 -50 -33 -50 -40 0 -18 101 -72 122 -65 10 4 42
22 72 40 l54 34 -49 31 c-59 37 -84 37 -149 0z"/>
<path d="M5822 1313 c-34 -20 -62 -39 -62 -42 0 -10 99 -61 116 -61 19 0 134
61 134 72 0 8 -103 68 -116 68 -5 0 -37 -17 -72 -37z"/>
</g>
</svg>
